<svg width="25" height="25" viewBox="0 0 25 25" fill="none" xmlns="http://www.w3.org/2000/svg">
<path d="M13.3929 15.625C12.9 15.625 12.5 14.925 12.5 14.0625C12.5 13.2 12.9 12.5 13.3929 12.5C13.8857 12.5 14.2857 13.2 14.2857 14.0625C14.2857 14.925 13.8857 15.625 13.3929 15.625Z" fill="black"/>
<path d="M17.55 0.190659C17.6466 0.264102 17.724 0.354848 17.777 0.456749C17.83 0.558651 17.8573 0.669328 17.8571 0.781283V1.56253H18.75C19.4604 1.56253 20.1417 1.80946 20.644 2.249C21.1464 2.68854 21.4286 3.28468 21.4286 3.90628V23.4375H24.1071C24.3439 23.4375 24.571 23.5198 24.7385 23.6663C24.9059 23.8128 25 24.0115 25 24.2188C25 24.4259 24.9059 24.6247 24.7385 24.7712C24.571 24.9177 24.3439 25 24.1071 25H0.892857C0.656057 25 0.428955 24.9177 0.261512 24.7712C0.0940686 24.6247 0 24.4259 0 24.2188C0 24.0115 0.0940686 23.8128 0.261512 23.6663C0.428955 23.5198 0.656057 23.4375 0.892857 23.4375H3.57143V2.34378C3.57146 2.15555 3.64916 1.97366 3.79024 1.83156C3.93131 1.68945 4.12628 1.5967 4.33929 1.57034L16.8393 0.00784708C16.9658 -0.00796234 17.0947 0.000177248 17.2173 0.0317157C17.3399 0.0632542 17.4534 0.117457 17.55 0.190659ZM18.75 3.12503H17.8571V23.4375H19.6429V3.90628C19.6429 3.69908 19.5488 3.50037 19.3813 3.35385C19.2139 3.20734 18.9868 3.12503 18.75 3.12503ZM5.35714 3.02191V23.4375H16.0714V1.68284L5.35714 3.02191Z" fill="black"/>
</svg>
