<svg width="25" height="25" viewBox="0 0 25 25" fill="none" xmlns="http://www.w3.org/2000/svg">
<path d="M17.8438 3.125L23.2 12.5L17.8438 21.875H7.15625L1.8 12.5L7.15625 3.125H17.8438ZM7.15625 1.5625C6.88084 1.56259 6.61034 1.63547 6.37217 1.77377C6.134 1.91206 5.93661 2.11085 5.8 2.35L0.443753 11.725C0.308924 11.961 0.238007 12.2282 0.238007 12.5C0.238007 12.7718 0.308924 13.039 0.443753 13.275L5.8 22.65C5.93661 22.8891 6.134 23.0879 6.37217 23.2262C6.61034 23.3645 6.88084 23.4374 7.15625 23.4375H17.8438C18.1192 23.4374 18.3897 23.3645 18.6278 23.2262C18.866 23.0879 19.0634 22.8891 19.2 22.65L24.5578 13.275C24.6926 13.039 24.7636 12.7718 24.7636 12.5C24.7636 12.2282 24.6926 11.961 24.5578 11.725L19.2 2.35C19.0634 2.11085 18.866 1.91206 18.6278 1.77377C18.3897 1.63547 18.1192 1.56259 17.8438 1.5625H7.15625Z" fill="black"/>
<path d="M10.7 9.2703C10.2522 9.52492 9.85911 9.8656 9.54347 10.2727C9.22784 10.6799 8.99586 11.1454 8.86089 11.6426C8.72591 12.1398 8.69061 12.6587 8.75701 13.1696C8.82341 13.6804 8.9902 14.1731 9.24779 14.6192C9.50537 15.0654 9.84866 15.4561 10.2579 15.7691C10.6671 16.082 11.1342 16.3109 11.6322 16.4426C12.1303 16.5742 12.6494 16.6061 13.1599 16.5363C13.6703 16.4665 14.1618 16.2965 14.6062 16.0359C15.4961 15.5142 16.1435 14.6618 16.4072 13.6645C16.6708 12.6673 16.5293 11.6062 16.0136 10.7129C15.4978 9.81959 14.6496 9.16655 13.6541 8.89628C12.6587 8.62601 11.5967 8.76047 10.7 9.2703ZM7.91874 15.3875C7.54499 14.7651 7.29893 14.0744 7.19489 13.3559C7.09086 12.6374 7.13094 11.9053 7.3128 11.2024C7.49465 10.4996 7.81465 9.83993 8.25411 9.26202C8.69357 8.6841 9.24371 8.19948 9.87244 7.83642C10.5012 7.47336 11.1959 7.23912 11.9161 7.14736C12.6363 7.05561 13.3675 7.10818 14.0672 7.30201C14.7669 7.49584 15.421 7.82704 15.9913 8.27631C16.5616 8.72557 17.0368 9.28391 17.389 9.91874C18.1028 11.1741 18.291 12.6609 17.9127 14.0546C17.5343 15.4482 16.62 16.6357 15.3694 17.3577C14.1188 18.0798 12.6333 18.2779 11.2372 17.9088C9.841 17.5397 8.64909 16.6333 7.91874 15.3875Z" fill="black"/>
</svg>
